<?xml version="1.0" encoding="utf-8"?>
<!-- Generator: Adobe Illustrator 25.2.3, SVG Export Plug-In . SVG Version: 6.00 Build 0)  -->
<svg version="1.1" id="Capa_1" xmlns="http://www.w3.org/2000/svg" xmlns:xlink="http://www.w3.org/1999/xlink" x="0px" y="0px"
	 viewBox="0 0 800 800" style="enable-background:new 0 0 800 800;" xml:space="preserve">
<style type="text/css">
	.st0{fill:#445EA0;}
	.st1{fill:#293D7C;}
	.st2{fill:#FFFFFF;}
	.st3{fill:#D9EAFC;}
	.st4{fill:#C3DDF4;}
	.st5{fill:#FFAF10;}
	.st6{fill:#FF9518;}
	.st7{fill:#5DC1D8;}
</style>
<desc>Created with Sketch.</desc>
<g id="fundamentals_x2F_css_x2F_responsive-design">
	<g id="container" transform="translate(2.000000, 2.000000)">
		<g id="responsive" transform="translate(10.000000, 15.000000)">
			<rect id="Rectangle-path" x="315.8" y="517.1" class="st0" width="103.5" height="51.8"/>
			<path id="Shape" class="st1" d="M471.1,568.8H231.7c-3.5,0-6.5,2.5-6.5,5.5v27.8c0,3,2.9,5.5,6.5,5.5h239.4V568.8z"/>
			<path id="Shape_1_" class="st1" d="M658.5,115.9H76.7c-3.7,0-6.7,3.1-6.7,6.8v387.6c0,3.7,3,6.8,6.7,6.8H489V313.2
				c0-5.2,4.2-9.3,9.3-9.3h167V122.7C665.2,118.9,662.2,115.9,658.5,115.9z"/>
			<path id="Shape_2_" class="st2" d="M95.8,435.5c0,2.2,1.8,3.9,4,3.9h381.4V305.5c0-4.9,4.1-8.9,9.2-8.9h136v-116H95.8V435.5z"/>
			<path id="Shape_3_" class="st3" d="M118.3,435.5V180.6H95.8v254.9c0,2.2,1.6,3.9,3.5,3.9h22.4
				C119.8,439.4,118.3,437.7,118.3,435.5z"/>
			<circle id="Oval" class="st0" cx="366.3" cy="476.9" r="19.4"/>
			<path id="Shape_4_" class="st4" d="M481.5,322.9H408c-2.3,0-4.1,1.9-4.1,4.1v82.3c0,2.3,1.9,4.1,4.1,4.1h73.5V322.9z"/>
			<path id="Shape_5_" class="st4" d="M499.5,289.8h62.2v-77.4c0-3.3-3-5.9-6.7-5.9H180.2c-3.7,0-6.7,2.7-6.7,5.9v78.8
				c0,3.3,3,5.9,6.7,5.9h310.1C490.8,293,494.7,289.8,499.5,289.8z"/>
			<path id="Shape_6_" class="st5" d="M622.4,141.8H99.8c-2.2,0-4,2.1-4,4.8v34.1h530.6v-34.1C626.4,143.9,624.6,141.8,622.4,141.8z
				"/>
			<path id="Shape_7_" class="st6" d="M121.7,141.8H99.3c-1.9,0-3.5,2.1-3.5,4.8v34.1h22.4v-34.1
				C118.3,143.9,119.8,141.8,121.7,141.8z"/>
			<g id="Group" transform="translate(8.000000, 16.000000)">
				<path id="Shape_8_" class="st7" d="M280.2,329.2H175.8c-5.1,0-9.3-4.7-9.3-10.5c0-5.8,4.2-10.5,9.3-10.5h104.4
					c5.1,0,9.3,4.7,9.3,10.5C289.5,324.5,285.3,329.2,280.2,329.2z"/>
				<path id="Shape_9_" class="st7" d="M280.2,363.3H175.8c-5.1,0-9.3-4.7-9.3-10.5c0-5.8,4.2-10.5,9.3-10.5h104.4
					c5.1,0,9.3,4.7,9.3,10.5C289.5,358.7,285.3,363.3,280.2,363.3z"/>
				<path id="Shape_10_" class="st7" d="M280.2,397.5H175.8c-5.1,0-9.3-4.7-9.3-10.5s4.2-10.5,9.3-10.5h104.4
					c5.1,0,9.3,4.7,9.3,10.5S285.3,397.5,280.2,397.5z"/>
				<path id="Shape_11_" class="st7" d="M362.1,329.2h-53.7c-5.1,0-9.3-4.7-9.3-10.5c0-5.8,4.2-10.5,9.3-10.5h53.7
					c5.1,0,9.3,4.7,9.3,10.5C371.4,324.5,367.2,329.2,362.1,329.2z"/>
				<path id="Shape_12_" class="st7" d="M362.1,363.3h-53.7c-5.1,0-9.3-4.7-9.3-10.5c0-5.8,4.2-10.5,9.3-10.5h53.7
					c5.1,0,9.3,4.7,9.3,10.5C371.4,358.7,367.2,363.3,362.1,363.3z"/>
				<path id="Shape_13_" class="st7" d="M362.1,397.5h-53.7c-5.1,0-9.3-4.7-9.3-10.5s4.2-10.5,9.3-10.5h53.7c5.1,0,9.3,4.7,9.3,10.5
					S367.2,397.5,362.1,397.5z"/>
			</g>
			<g id="Group-2" transform="translate(31.000000, 13.000000)">
				<path id="Shape_14_" class="st0" d="M676,271.1c5.5,0,10,4.9,10,10.8v327.7c0,6-4.5,10.8-10,10.8H450.2c-5.5,0-10-4.9-10-10.8
					V282c0-6,4.5-10.8,10-10.8H676z"/>
				<path id="Shape_15_" class="st2" d="M459.4,555.8c-3.5,0-6.4-2.9-6.4-6.4V290.5c0-3.5,2.9-6.4,6.4-6.4h194.3
					c3.5,0,6.4,2.9,6.4,6.4v258.9c0,3.5-2.9,6.4-6.4,6.4H459.4z"/>
				<path id="Shape_16_" class="st3" d="M484.1,549.4V290.5c0-3.5,3.5-6.4,7.8-6.4h-31c-4.3,0-7.8,2.9-7.8,6.4v258.9
					c0,3.5,3.5,6.4,7.8,6.4h31C487.6,555.8,484.1,552.9,484.1,549.4z"/>
				<path id="Shape_17_" class="st1" d="M550.4,594.7c-3.7,0-6.8-2.4-6.8-5.4v-2.1c0-3,3-5.4,6.8-5.4h25.3c3.7,0,6.8,2.4,6.8,5.4
					v2.1c0,3-3,5.4-6.8,5.4H550.4z"/>
				<path id="Shape_18_" class="st5" d="M660.1,309.9v-19.2c0-3.7-2.9-6.7-6.4-6.7H459.4c-3.5,0-6.4,3-6.4,6.7v19.2H660.1z"/>
				<path id="Shape_19_" class="st6" d="M491.9,284.1h-31c-4.3,0-7.8,3-7.8,6.7v19.2h31v-19.2C484.1,287.1,487.6,284.1,491.9,284.1z
					"/>
				<path id="Rectangle" class="st4" d="M504.8,322.9h129.4c7.1,0,12.9,5.8,12.9,12.9v38.8c0,7.1-5.8,12.9-12.9,12.9H504.8
					c-7.1,0-12.9-5.8-12.9-12.9v-38.8C491.9,328.7,497.7,322.9,504.8,322.9z"/>
			</g>
		</g>
	</g>
	<path id="Rectangle-4" class="st7" d="M523.3,438.4h115.1c4.5,0,8.2,3.7,8.2,8.2l0,0c0,4.5-3.7,8.2-8.2,8.2H523.3
		c-4.5,0-8.2-3.7-8.2-8.2l0,0C515.1,442,518.7,438.4,523.3,438.4z"/>
	<path id="Rectangle-4_1_" class="st7" d="M523.3,463h115.1c4.5,0,8.2,3.7,8.2,8.2l0,0c0,4.5-3.7,8.2-8.2,8.2H523.3
		c-4.5,0-8.2-3.7-8.2-8.2l0,0C515.1,466.7,518.7,463,523.3,463z"/>
	<path id="Rectangle-4_2_" class="st7" d="M523.3,487.7h115.1c4.5,0,8.2,3.7,8.2,8.2l0,0c0,4.5-3.7,8.2-8.2,8.2H523.3
		c-4.5,0-8.2-3.7-8.2-8.2l0,0C515.1,491.4,518.7,487.7,523.3,487.7z"/>
	<path id="Rectangle-4_3_" class="st7" d="M523.3,512.3h115.1c4.5,0,8.2,3.7,8.2,8.2l0,0c0,4.5-3.7,8.2-8.2,8.2H523.3
		c-4.5,0-8.2-3.7-8.2-8.2l0,0C515.1,516,518.7,512.3,523.3,512.3z"/>
	<path id="Rectangle-4_4_" class="st7" d="M523.3,537h115.1c4.5,0,8.2,3.7,8.2,8.2l0,0c0,4.5-3.7,8.2-8.2,8.2H523.3
		c-4.5,0-8.2-3.7-8.2-8.2l0,0C515.1,540.7,518.7,537,523.3,537z"/>
</g>
</svg>
