<?xml version="1.0" encoding="utf-8"?>
<!-- Generator: Adobe Illustrator 25.2.3, SVG Export Plug-In . SVG Version: 6.00 Build 0)  -->
<svg version="1.1" id="Capa_1" xmlns="http://www.w3.org/2000/svg" xmlns:xlink="http://www.w3.org/1999/xlink" x="0px" y="0px"
	 viewBox="0 0 800 800" style="enable-background:new 0 0 800 800;" xml:space="preserve">
<style type="text/css">
	.st0{fill:#D8D7DA;}
	.st1{fill:#E6E7E8;}
	.st2{fill:#C6C5CA;}
	.st3{fill:#F36518;}
	.st4{fill:#ACABB1;}
	.st5{fill:#E0E0E2;}
	.st6{fill:#D1D3D4;}
	.st7{fill:#1D7EF2;}
	.st8{fill:#F2C91C;}
	.st9{fill:#FFFFFF;}
	.st10{fill:#594800;}
</style>
<desc>Created with Sketch.</desc>
<g id="accessibility_x2F_accessible-html">
	<g id="html" transform="translate(17.000000, 14.000000)">
		<path id="Rectangle-path" class="st0" d="M178.9,81H617c16.8,0,30.5,13.6,30.5,30.5v580.7c0,16.8-13.6,30.5-30.5,30.5H178.9
			c-16.8,0-30.5-13.6-30.5-30.5V111.4C148.4,94.6,162.1,81,178.9,81z"/>
		<path id="Rectangle-path_1_" class="st1" d="M131.4,33.4h438.1c16.8,0,30.5,13.6,30.5,30.5v580.7c0,16.8-13.6,30.5-30.5,30.5
			H131.4c-16.8,0-30.5-13.6-30.5-30.5V63.9C100.9,47.1,114.6,33.4,131.4,33.4z"/>
		<path id="Shape" class="st2" d="M148.4,698.8h451.5c13.1,0,23.7-10.7,23.8-23.8V81h-23.8v570.3c0,13.1-10.7,23.7-23.8,23.8H148.4
			V698.8z"/>
		<polygon id="Shape_1_" class="st3" points="219.7,33.4 219.7,116.6 196,81 172.2,116.6 172.2,33.4 		"/>
		<polygon id="Shape_2_" class="st4" points="601.9,317.4 619.7,317.4 619.7,335.1 601.9,335.1 		"/>
		<path id="Shape_4_" class="st5" d="M599.9,267.6v383.7c0,13.1-10.7,23.7-23.8,23.8H166.4c86.5-50.9,167.6-110.6,241.8-178.2
			c8.4-7.6,16.9-15.6,25.2-23.8C497.3,411.9,553.3,342.9,599.9,267.6z"/>
		<path id="Shape_5_" class="st6" d="M601.9,238.8V250H335.5c-9.8,0-17.7-5-17.8-11.2H601.9z"/>
		<path id="Rectangle-path_2_" class="st3" d="M322.8,104.3h327.4c12.6,0,22.8,6.4,22.8,14.4v105.8c0,7.9-10.2,14.4-22.8,14.4H322.8
			c-12.6,0-22.8-6.4-22.8-14.4V118.6C300,110.7,310.2,104.3,322.8,104.3z"/>
		<path id="Shape_3_" class="st6" d="M627.7,396.8V408H337.2c-10.7,0-19.3-5-19.4-11.2H627.7z"/>
		<path id="Rectangle-path_3_" class="st7" d="M322.8,262.3h327.4c12.6,0,22.8,6.4,22.8,14.4v105.8c0,7.9-10.2,14.4-22.8,14.4H322.8
			c-12.6,0-22.8-6.4-22.8-14.4V276.6C300,268.7,310.2,262.3,322.8,262.3z"/>
		<path id="Shape_6_" class="st6" d="M658.7,567.5v11.2H321.3c-12.4,0-22.5-5-22.5-11.2H658.7z"/>
		<path id="Rectangle-path_4_" class="st8" d="M322.3,433h319.9c12.3,0,22.2,6.4,22.2,14.4v105.8c0,7.9-10,14.4-22.2,14.4H322.3
			c-12.3,0-22.2-6.4-22.2-14.4V447.4C300,439.4,310,433,322.3,433z"/>
		<g>
			<path class="st9" d="M379.9,139.1v24.2h23.5v-24.2h14.2v63.1h-14.2v-26.4h-23.5v26.4h-14.3v-63.1H379.9z"/>
			<path class="st9" d="M442.3,151h-16.9v-12h48.5v12h-17.2v51.1h-14.3V151z"/>
			<path class="st9" d="M534.4,178c-0.3-7.6-0.6-16.8-0.6-25.9h-0.3c-2,8.1-4.6,17-7,24.4l-7.7,24.6h-11.1l-6.7-24.4
				c-2.1-7.4-4.2-16.4-5.7-24.6h-0.2c-0.4,8.5-0.7,18.3-1.1,26.1l-1.1,24h-13.2l4-63.1h19l6.2,21.1c2,7.3,3.9,15.2,5.3,22.6h0.3
				c1.8-7.3,3.9-15.6,6-22.7l6.7-21h18.6l3.5,63.1h-13.9L534.4,178z"/>
			<path class="st9" d="M560.3,139.1h14.3v51.1h25.1v12h-39.4V139.1z"/>
		</g>
		<g>
			<path class="st9" d="M463,361.2c-2.6,1.3-8.5,2.7-16.2,2.7c-21.8,0-33-13.6-33-31.5c0-21.5,15.4-33.5,34.4-33.5
				c7.4,0,13,1.5,15.5,2.8l-2.9,11.3c-2.9-1.2-6.9-2.3-12-2.3c-11.3,0-20.1,6.8-20.1,20.9c0,12.6,7.5,20.6,20.2,20.6
				c4.3,0,9.1-0.9,11.9-2.1L463,361.2z"/>
			<path class="st9" d="M472.8,348.2c3.8,2,9.7,3.9,15.8,3.9c6.6,0,10-2.7,10-6.8c0-3.9-3-6.2-10.6-8.9
				c-10.5-3.7-17.3-9.5-17.3-18.6c0-10.8,9-19,23.9-19c7.1,0,12.4,1.5,16.1,3.2l-3.2,11.5c-2.5-1.2-7-3-13.2-3
				c-6.2,0-9.2,2.8-9.2,6.1c0,4,3.6,5.8,11.7,8.9c11.1,4.1,16.4,9.9,16.4,18.8c0,10.6-8.1,19.6-25.5,19.6c-7.2,0-14.3-1.9-17.9-3.8
				L472.8,348.2z"/>
			<path class="st9" d="M523.3,348.2c3.8,2,9.7,3.9,15.8,3.9c6.6,0,10-2.7,10-6.8c0-3.9-3-6.2-10.6-8.9
				c-10.5-3.7-17.3-9.5-17.3-18.6c0-10.8,9-19,23.9-19c7.1,0,12.4,1.5,16.1,3.2l-3.2,11.5c-2.5-1.2-7-3-13.2-3
				c-6.2,0-9.2,2.8-9.2,6.1c0,4,3.6,5.8,11.7,8.9c11.1,4.1,16.4,9.9,16.4,18.8c0,10.6-8.1,19.6-25.5,19.6c-7.2,0-14.3-1.9-17.9-3.8
				L523.3,348.2z"/>
		</g>
		<g>
			<path class="st10" d="M332.6,481.7h9V507c0,11.4-5.5,15.4-14.3,15.4c-2.1,0-4.8-0.4-6.6-1l1-7.3c1.2,0.4,2.9,0.7,4.6,0.7
				c3.8,0,6.2-1.7,6.2-8V481.7z"/>
			<path class="st10" d="M358.5,511.5l-2.9,10.3h-9.4l12.2-40.1h11.9l12.4,40.1H373l-3.1-10.3H358.5z M368.6,504.7l-2.5-8.5
				c-0.7-2.4-1.4-5.4-2-7.7H364c-0.6,2.4-1.2,5.4-1.8,7.7l-2.4,8.5H368.6z"/>
			<path class="st10" d="M394.1,521.8l-12.8-40.1h9.9l4.9,16.9c1.4,4.8,2.6,9.3,3.6,14.3h0.2c1-4.8,2.3-9.6,3.6-14.1l5.1-17.1h9.6
				l-13.5,40.1H394.1z"/>
			<path class="st10" d="M428.6,511.5l-2.9,10.3h-9.4l12.2-40.1h11.9l12.4,40.1h-9.8l-3.1-10.3H428.6z M438.7,504.7l-2.5-8.5
				c-0.7-2.4-1.4-5.4-2-7.7h-0.1c-0.6,2.4-1.2,5.4-1.8,7.7l-2.4,8.5H438.7z"/>
			<path class="st10" d="M458.5,512.4c2.4,1.2,6.2,2.5,10,2.5c4.2,0,6.4-1.7,6.4-4.3c0-2.5-1.9-3.9-6.7-5.6c-6.7-2.3-11-6-11-11.8
				c0-6.8,5.7-12.1,15.2-12.1c4.5,0,7.8,1,10.2,2l-2,7.3c-1.6-0.8-4.5-1.9-8.4-1.9c-3.9,0-5.8,1.8-5.8,3.9c0,2.6,2.3,3.7,7.4,5.6
				c7.1,2.6,10.4,6.3,10.4,11.9c0,6.7-5.2,12.4-16.2,12.4c-4.6,0-9.1-1.2-11.4-2.4L458.5,512.4z"/>
			<path class="st10" d="M519.8,520.6c-1.7,0.8-5.4,1.7-10.3,1.7c-13.9,0-21-8.6-21-20c0-13.7,9.7-21.3,21.9-21.3
				c4.7,0,8.3,1,9.9,1.8l-1.8,7.2c-1.8-0.8-4.4-1.5-7.6-1.5c-7.2,0-12.8,4.3-12.8,13.3c0,8,4.8,13.1,12.8,13.1
				c2.7,0,5.8-0.6,7.5-1.3L519.8,520.6z"/>
			<path class="st10" d="M525.7,482.2c2.9-0.5,7.3-0.8,12.1-0.8c5.9,0,10.1,0.9,13,3.2c2.4,1.9,3.7,4.7,3.7,8.4
				c0,5.1-3.6,8.6-7.1,9.9v0.2c2.8,1.1,4.3,3.8,5.4,7.5c1.2,4.5,2.5,9.7,3.3,11.3h-9.3c-0.7-1.1-1.6-4.4-2.8-9.3
				c-1.1-5-2.8-6.4-6.5-6.4h-2.7v15.8h-9V482.2z M534.7,499.5h3.6c4.5,0,7.2-2.3,7.2-5.8c0-3.7-2.5-5.5-6.7-5.6
				c-2.2,0-3.4,0.2-4.1,0.3V499.5z"/>
			<path class="st10" d="M570.1,481.7v40.1H561v-40.1H570.1z"/>
			<path class="st10" d="M577.9,482.2c2.8-0.5,6.7-0.8,12.2-0.8c5.6,0,9.6,1.1,12.2,3.2c2.6,2,4.3,5.4,4.3,9.3
				c0,3.9-1.3,7.3-3.7,9.5c-3.1,2.9-7.7,4.2-13,4.2c-1.2,0-2.3-0.1-3.1-0.2v14.3h-9V482.2z M586.9,500.4c0.8,0.2,1.7,0.2,3,0.2
				c4.8,0,7.8-2.4,7.8-6.5c0-3.7-2.6-5.9-7.1-5.9c-1.8,0-3.1,0.2-3.7,0.4V500.4z"/>
			<path class="st10" d="M620.2,489.3h-10.8v-7.6h30.8v7.6h-10.9v32.5h-9.1V489.3z"/>
		</g>
	</g>
</g>
</svg>
